<?xml version="1.0" standalone="no"?>
<!DOCTYPE svg PUBLIC "-//W3C//DTD SVG 20010904//EN"
 "http://www.w3.org/TR/2001/REC-SVG-20010904/DTD/svg10.dtd">
<svg version="1.0" xmlns="http://www.w3.org/2000/svg"
 width="100.000000pt" height="100.000000pt" viewBox="0 0 100.000000 100.000000"
 preserveAspectRatio="xMidYMid meet">

<g transform="translate(0.000000,100.000000) scale(0.100000,-0.100000)"
fill="#ffffff" stroke="none">
<path d="M530 877 c3 -3 54 -10 113 -16 186 -19 178 0 170 -392 -3 -167 -9
-308 -13 -314 -5 -6 -106 -10 -267 -10 l-258 0 -7 170 c-8 190 -19 358 -23
353 -1 -2 -6 -121 -10 -265 -6 -251 -6 -262 13 -281 18 -18 40 -20 279 -27
226 -6 264 -5 290 8 17 9 33 22 35 29 3 7 4 153 3 323 -2 275 -4 315 -20 348
-27 57 -61 71 -195 75 -63 2 -113 2 -110 -1z"/>
<path d="M512 761 c-8 -5 -12 -17 -10 -27 3 -17 15 -19 101 -22 84 -2 98 0
104 14 11 29 -24 44 -106 44 -42 0 -82 -4 -89 -9z"/>
<path d="M315 740 c-9 -27 2 -58 23 -63 15 -3 14 -5 -3 -12 -36 -14 -55 -38
-55 -67 0 -27 2 -28 48 -30 69 -3 94 0 105 11 16 16 -2 61 -34 80 -23 14 -27
20 -15 24 19 7 21 48 4 65 -20 20 -66 15 -73 -8z"/>
<path d="M520 615 c0 -30 16 -34 115 -32 59 2 70 5 73 21 6 28 -15 36 -105 36
-82 0 -83 0 -83 -25z"/>
<path d="M280 455 l0 -26 143 3 c134 3 142 4 142 23 0 19 -8 20 -142 23 l-143
3 0 -26z"/>
<path d="M634 466 c-10 -27 4 -46 33 -46 37 0 56 13 51 36 -4 25 -75 33 -84
10z"/>
<path d="M480 360 c-175 -4 -195 -7 -198 -22 -7 -35 40 -41 253 -31 184 7 200
9 203 27 5 22 -14 37 -43 34 -11 -1 -108 -5 -215 -8z"/>
<path d="M294 245 c-15 -38 2 -45 104 -45 135 0 162 6 162 36 l0 24 -130 0
c-107 0 -132 -3 -136 -15z"/>
</g>
</svg>
