<?xml version="1.0" encoding="UTF-8"?>
<svg version="1.1" viewBox="0 0 1600 640" width="1280" height="1280" xmlns="http://www.w3.org/2000/svg">
<path transform="translate(595 53.8)" d="m0 0c1.13 0.712 2.24 1.46 3.31 2.25 1.01 0.66 2.02 1.32 3.06 2 9.17 8.12 13.8 22.1 15.5 33.8 0.179 2.13 0.179 2.13 1.39 3.15 3.17 22 2.72 44.2 0.562 66.2-0.0673 0.689-0.135 1.38-0.204 2.09-1.15 11.5-1.15 11.5-2.36 12.7-0.322 1.81-0.589 3.62-0.832 5.44-0.235 1.7-0.235 1.7-0.474 3.43-0.167 1.22-0.334 2.43-0.506 3.69-1.48 10.4-3.32 20.3-6.19 30.4-0.398 1.47-0.793 2.93-1.19 4.4-3.52 13-7.49 25.8-11.8 38.6-0.464 1.42-0.464 1.42-0.938 2.86-1.06 3.12-2.17 6.2-3.38 9.27-0.388 1.01-0.776 2.03-1.18 3.07-2.03 3.77-4.52 5.96-8.47 7.63-6.24 1.42-11.7 2.52-17.5-0.766-4.36-3.51-3.94-5.49-4.56-11.1 2.63-1.7 4.73-2.94 7.81-3.62 12.1-5.22 17.5-22 22.2-33.4 0.678-2.33 1.34-4.66 2-7 0.713-1.88 1.43-3.76 2.14-5.64 2.72-7.5 5.03-15.1 6.27-22.9 0.59-2.41 0.59-2.41 1.99-5.35 2.48-5.59 3.16-11.7 4.16-17.7 0.208-1.19 0.416-2.39 0.631-3.62 1.03-5.95 2.01-11.9 2.96-17.9 0.244-1.53 0.244-1.53 0.494-3.1 0.465-3.64 0.427-7.14 0.358-10.8 0.33-0.66 0.66-1.32 1-2 0.279-4.83 0.245-9.67 0.25-14.5 0.00101-0.704 0.00201-1.41 0.00305-2.13-0.0188-19.4-1.19-38.7-15.3-53.4-5.7-4.9-10.4-6.27-17.9-5.88-5.7 0.604-10.1 2.22-15.1 4.88-0.877 0.421-0.877 0.421-1.77 0.851-4.93 2.38-9.45 5.13-14 8.21-0.969 0.651-0.969 0.651-1.96 1.31-2.6 1.75-5.15 3.51-7.62 5.43-1.67 1.19-1.67 1.19-3.67 1.19-0.33 0.99-0.66 1.98-1 3-1.89 1.65-1.89 1.65-4.25 3.38-4.21 3.17-7.85 6.58-11.4 10.4-1.31 1.19-1.31 1.19-3.31 1.19v2c-1.48 1.25-2.96 2.49-4.47 3.69-1.83 1.56-3.1 3.38-4.53 5.31h-2c-0.99 1.98-0.99 1.98-2 4h-2c-0.165 0.681-0.33 1.36-0.5 2.06-1.86 3.64-4.24 5.46-7.34 8.04-2.81 2.47-5.15 5.21-7.57 8.05-2.07 2.41-4.34 4.6-6.59 6.84-0.825 0.99-1.65 1.98-2.5 3-2.5 3-2.5 3-4.86 5.32-3.53 3.58-6.55 7.5-9.65 11.4-0.984 1.1-0.984 1.1-1.99 2.23h-2c-0.33 0.99-0.66 1.98-1 3-0.973 1.03-1.98 2.02-3 3-1.39 1.65-2.76 3.32-4.12 5-2.4 2.96-4.81 5.92-7.25 8.85-4.07 4.89-7.87 9.77-11.2 15.2-1.39 1.97-1.39 1.97-3.3 3.87-3.24 3.26-5.67 7.07-8.29 10.8-0.596 0.748-1.19 1.5-1.8 2.27h-2c-0.42 1.12-0.42 1.12-0.848 2.26-1.03 2.44-2.1 4.38-3.59 6.55l-1.59 2.34c-0.65 0.941-1.3 1.88-1.97 2.85-0.865 1.26-1.73 2.53-2.59 3.79-3.96 5.78-7.92 11.5-12 17.2-3.44 4.86-6.24 10-9.1 15.2-2.37 4.28-4.93 8.13-7.99 11.9-2.34 3.31-3.8 7.05-5.29 10.8h-2l-0.551 1.79c-0.251 0.79-0.503 1.58-0.762 2.39-0.244 0.777-0.487 1.55-0.738 2.36-1.05 2.72-2.43 4.97-3.95 7.46-1.29 2.49-2.56 4.99-3.81 7.5-0.35 0.704-0.701 1.41-1.06 2.13-4.62 9.34-8.96 18.8-12.9 28.4-0.804 1.95-1.62 3.9-2.46 5.84-2.89 6.73-5.3 13.6-7.57 20.5-1.03 3.12-2.11 6.21-3.25 9.29-8.12 22.1-15 45.1-17.6 68.6-0.359 2.7-0.359 2.7-1.36 4.7-1.77 12.7-2.31 25.7-1.75 38.5 0.0385 0.911 0.077 1.82 0.117 2.76 1.24 22 8.9 46.8 24.6 62.7 10.7 9.42 22.9 12.8 37 12.6 1.17 0.011 2.34 0.0219 3.54 0.0332 8.47-0.0705 15.5-1.84 23.5-4.6 2.15-0.618 4.29-1.23 6.44-1.84 7.17-2.21 13.8-5.34 20.5-8.66 1.77-0.853 1.77-0.853 3.57-1.72 6.52-3.17 6.52-3.17 12.7-6.97 2.81-1.81 2.81-1.81 5.81-1.81v-2c0.784-0.351 1.57-0.701 2.38-1.06 4.04-2 7.57-4.68 11.2-7.3 2.68-1.83 5.49-3.22 8.4-4.64 0.454-0.455 0.908-0.91 1.38-1.38 1.91-1.9 3.95-3.31 6.19-4.81 0.785-0.53 1.57-1.06 2.38-1.61 2.06-1.21 2.06-1.21 4.06-1.21 0.33-0.99 0.66-1.98 1-3 1.75-1.39 1.75-1.39 4-2.81 0.808-0.519 1.62-1.04 2.45-1.57 0.842-0.532 1.68-1.06 2.55-1.61 6.93-4.46 6.93-4.46 13-10 1.98-1.69 3.98-3.35 6-5 0.772-0.638 1.54-1.28 2.34-1.93 4.07-3.35 8.15-6.68 12.3-9.92 0.619-0.482 1.24-0.964 1.88-1.46 1.2-0.934 2.41-1.87 3.62-2.79 3.54-2.75 6.74-5.65 9.86-8.89 2.43-2.51 4.95-4.84 7.59-7.11 5.3-4.62 10.3-9.49 15.4-14.4 0.718-0.684 1.44-1.37 2.18-2.07 0.64-0.615 1.28-1.23 1.94-1.86 1.89-1.58 1.89-1.58 4.06-2.61 2.18-0.893 2.18-0.893 2.82-3.97 1.39-1.37 1.39-1.37 3.25-2.88 4.63-3.91 8.86-8.17 13.1-12.5 3.07-3.12 6.23-5.89 9.66-8.62 1.2-1.28 2.37-2.59 3.5-3.94 3.38-3.94 6.74-7.72 10.9-10.9 4.5-3.75 8.13-8.29 11.8-12.9 2.13-2.62 4.49-4.92 6.88-7.31 1.02-1.36 1.02-1.36 2.06-2.75 2.03-2.35 2.91-2.93 5.94-3.25 0.0619-0.557 0.124-1.11 0.188-1.69 1.16-3.29 3.3-4.91 5.81-7.31 1.01-1.16 2.01-2.32 3-3.5 1.73-2.05 3.45-3.93 5.38-5.81 7.01-6.56 7.01-6.56 11-14.9-0.089-1.93-0.246-3.86-0.406-5.79 1.43-3.95 3.59-6.71 6.25-9.88 7.68-9.62 11.4-22.5 15.4-34 3.54-10.3 7.4-20.3 11.6-30.3 3.02-7.22 5.81-14.5 8.61-21.8 1.5-3.89 2.98-7.65 4.9-11.4 2.22-4.38 3.96-8.91 5.75-13.5 2.35-5.93 5.03-11.7 7.79-17.4 1.32-2.75 2.62-5.47 3.75-8.3 1.49-3.72 3.35-7.26 5.16-10.8 0.315-0.622 0.629-1.24 0.953-1.89 0.314-0.621 0.628-1.24 0.951-1.88 0.836-1.67 1.65-3.36 2.46-5.05 2.8-5.81 5.85-11.1 9.67-16.3 1.9-2.68 3.54-5.44 5.22-8.26 3.92-6.22 9.25-11.4 16.6-13.2 3.56-0.438 3.56-0.438 7 0 3.83 3.41 4.93 7.08 6 12-0.207 2.78-0.511 5.23-1.06 7.94-0.14 0.734-0.28 1.47-0.424 2.23-1.57 7.81-3.97 15.3-6.51 22.8-0.353 1.11-0.706 2.21-1.07 3.35-3.01 9.35-7.1 18.1-11.3 27-0.393 0.828-0.786 1.66-1.19 2.51-3.06 6.44-6.21 12.8-9.43 19.2-0.959 1.92-1.92 3.83-2.88 5.75-0.708 1.42-1.42 2.83-2.12 4.25h-2c-0.238 0.835-0.238 0.835-0.48 1.69-1.76 5.77-4.2 10.3-7.52 15.3-3.64 5.87-7 11.8-10 18h-2c-0.309 1.18-0.309 1.18-0.625 2.38-2.95 7.77-7.9 14.4-12.7 21.2-2.5 3.68-4.62 7.54-6.68 11.5h-2c-0.242 0.871-0.485 1.74-0.734 2.64-1.38 3.65-3.09 6.06-5.52 9.11-8.33 10.8-13.8 21.6-17.7 34.6-1.39 4.67-2.86 9.32-4.32 14-1.82 5.81-3.59 11.6-4.88 17.6-0.168 0.772-0.335 1.54-0.508 2.34-0.121 0.568-0.242 1.14-0.367 1.72 1.22-1.08 1.22-1.08 1.88-3.38 1.16-2.7 2.09-3.6 4.12-5.62 1.35-1.78 2.68-3.57 4-5.38 3.91-5.28 8.04-10.3 12.4-15.3 2.33-2.68 4.06-5.2 5.63-8.37 1.59-1.49 1.59-1.49 3.38-2.88 2.38-1.95 3.72-3.27 5.38-5.94 2.92-4.13 6.5-6.83 10.5-9.95 2.38-1.91 4.58-3.89 6.8-5.99 6.12-5.37 13.8-9.25 22.1-8.74 4.08 1.03 5.97 4.04 8.19 7.37 1.08 3.06 1.52 5.89 1.75 9.12-0.661 1.34-1.33 2.67-2 4-0.543 2.58-0.543 2.58-0.852 5.4-0.194 1.57-0.194 1.57-0.392 3.18-0.126 1.11-0.252 2.21-0.381 3.35-0.195 1.69-0.195 1.69-0.393 3.42-2.39 14.9-2.39 14.9 2.02 28.6 4.33 2.89 7.91 2.68 13 2 4.17-1.33 8.06-3.1 12-5 0.834-0.396 1.67-0.791 2.53-1.2 12.6-6.15 25.4-12.7 36.5-21.3 1.31-1.01 2.65-2 4-2.96 8.81-6.29 12.8-11.8 14.9-22.5 0.165-1.2 0.33-2.39 0.5-3.62 0.526-3.55 1.49-6.65 2.68-10 0.558-1.59 1.08-3.2 1.58-4.81 0.245-0.794 0.49-1.59 0.742-2.41 0.325-1.08 0.325-1.08 0.656-2.18 0.985-2.27 1.88-3.44 3.84-4.95 2.12-0.547 2.12-0.547 4.44-0.75 0.762-0.0773 1.52-0.155 2.31-0.234 2.34-0.0162 4.07 0.148 6.25 0.984 2.91 4.37 1.96 7.98 1 13-0.866 2.41-1.93 4.66-3 7v4h-2c-0.309 0.949-0.619 1.9-0.938 2.88-1.06 3.12-1.06 3.12-2.06 5.12 2.66-2.48 4.64-4.6 6-8v-2c1.62-1.71 3.3-3.37 5-5 0.825-0.846 1.65-1.69 2.5-2.56 6.61-6.45 13.1-10.8 22.4-11.9 4.86 0.103 7.48 2.3 11.1 5.44v2h2l1.62 2.56c6.54 10.3 18.4 16 29.9 19 16.5 3.54 33.6 3.65 50.4 4.12 0.831 0.0249 1.66 0.0498 2.52 0.0755 2.41 0.0697 4.82 0.13 7.22 0.186 0.712 0.0207 1.42 0.0413 2.16 0.0626 5.14 0.103 10.1-0.34 15.2-1.01 0.351-1.2 0.701-2.39 1.06-3.62 1.48-4.39 3.31-8.58 5.31-12.8 0.565-1.18 1.13-2.37 1.71-3.59 2.51-3.99 5.01-5.42 9.41-6.85 3.01-0.225 4.82 0.508 7.5 1.81v2h2c1.19 1.94 1.19 1.94 2 5-1.57 6.5-4.52 12.3-7.37 18.3-6.29 13.3-12.5 29-7.63 43.7 4.73 3.25 10.5 2.21 16 2 1.39-0.0445 1.39-0.0445 2.81-0.0898 6.04-0.359 11.2-1.75 16.9-3.8 4.6-1.53 9.27-2.64 14-3.72 3.29-0.776 5.5-1.5 8.34-3.4 1.34-0.523 2.69-0.998 4.06-1.44 1.19-0.387 1.19-0.387 2.41-0.781 2.48-0.768 4.97-1.5 7.46-2.22 4.16-1.24 8.14-2.74 12.2-4.39 4.34-1.75 8.73-3.36 13.1-4.98 4.33-1.61 8.56-3.37 12.8-5.19 2.2-0.866 4.41-1.72 6.62-2.56 7.23-2.76 14.4-5.64 21.4-8.81 5.85-2.52 11.9-4.52 17.9-6.62l-0.25-3.81c0-7.88 2.84-15.4 8.25-21.2 0.603-0.777 1.21-1.55 1.83-2.36 3.6-4.38 7.88-7.95 12.2-11.6 0.605-0.55 1.21-1.1 1.83-1.67 7.97-6.71 20.8-12.2 31.2-12.7 3.41 0.612 4.98 2.67 6.96 5.35 0.33 0.33 0.66 0.66 1 1 0.77 12.6-0.118 24-4 36-0.312 1.04-0.624 2.07-0.945 3.14-2.14 6.3-2.14 6.3-5.8 8.55-6.01 0.578-11.4 0.278-16.2-3.69-1.18-2.67-1.09-3.76-0.0664-6.52 0.496-0.941 0.993-1.88 1.5-2.85 0.549-1.05 1.1-2.09 1.66-3.17 2.7-4.91 5.45-9.78 8.26-14.6 2.51-4.35 2.73-6.77 2.64-11.8-3.49 0.654-6 2.07-9 3.94-4.73 2.94-4.73 2.94-7.25 4.12-2.29 1.22-2.65 2.65-3.75 4.94-0.99 0.33-1.98 0.66-3 1-1.06 1.81-1.06 1.81-2 4-0.974 1.6-1.98 3.18-3 4.75l-1.56 2.42c-0.712 0.905-0.712 0.905-1.44 1.83h-2c-0.205 0.843-0.41 1.69-0.621 2.55-0.404 1.64-0.404 1.64-0.816 3.32-0.4 1.64-0.4 1.64-0.809 3.3-0.754 2.82-0.754 2.82-1.75 4.82-0.373 5.41 0.179 9.12 2.27 14.1 0.998 2.58 1.39 5.16 1.73 7.9h2c0.454 1.03 0.908 2.06 1.38 3.12 3.1 6.21 7.33 11.7 11.4 17.3 1.03 1.4 2.05 2.81 3.07 4.22 2.29 3.14 3.84 5.2 7.12 7.39 3.55-0.33 5.91-2.14 8.75-4.19 0.877-0.628 1.75-1.26 2.66-1.9 2.9-2.14 5.78-4.32 8.61-6.55 2.54-1.74 5.23-2.99 7.98-4.36 2.22-1.31 4.43-2.64 6.62-4 1.11-0.681 2.21-1.36 3.35-2.06 2.93-1.82 2.93-1.82 5.21-3.59 2.69-1.99 5.74-3.05 8.82-4.34 1.67-0.999 3.33-2 5-3 2.14-1.1 4.28-2.18 6.44-3.25 1.26-0.624 2.52-1.25 3.77-1.87 0.635-0.314 1.27-0.629 1.92-0.953 2.82-1.4 5.62-2.82 8.43-4.24 6.13-3.07 12.3-6.05 18.5-9 0.905-0.433 1.81-0.866 2.74-1.31 0.86-0.409 1.72-0.818 2.61-1.24 0.764-0.364 1.53-0.728 2.32-1.1 18.2-8.28 18.2-8.28 24.5-6.35 2.24 1.68 2.9 2.62 3.75 5.31 0.317 2.81 0.231 5.14 0 8-3.21 2.14-4.92 2.43-8.69 2.94-5.14 0.792-9.54 2.05-14.3 4.06-1.29 0.484-2.58 0.963-3.88 1.44-1.38 0.519-2.75 1.04-4.12 1.56-0.726 0.275-1.45 0.549-2.2 0.832-11.9 4.61-23.3 10.3-34.6 16.1-15.1 7.74-15.1 7.74-23.2 10.1v2c-0.926 0.454-0.926 0.454-1.87 0.918-9.38 4.64-18.3 9.77-27.2 15.3-2.28 1.38-4.52 2.64-6.92 3.77 0.116 1.4 0.243 2.79 0.375 4.19 0.104 1.17 0.104 1.17 0.211 2.36 0.329 2.49 0.329 2.49 1.38 4.84 6.08 15.4 3.23 34.5-1.96 49.6-0.335 1.03-0.67 2.06-1.02 3.12-3.16 9.23-7.54 18.5-14 25.9-0.503 0.605-1.01 1.21-1.52 1.83-6.58 7.78-13.4 13.6-22.5 18.2-1.58 0.866-1.58 0.866-3.19 1.75-7.98 3.55-20.4 4.03-28.8 1.27-2.2-1.19-4.09-2.45-6.03-4.02-0.784-0.578-1.57-1.16-2.38-1.75-4.77-6.61-5.43-14.3-4.62-22.2 1.72-9.28 6.37-17.5 12-25 0.447-0.777 0.895-1.55 1.36-2.36 2.02-3.25 4.45-6.08 6.96-8.96 3.1-3.6 6.12-7.18 8.88-11.1 2.57-3.54 5.6-6.19 8.95-8.98 2.05-1.81 3.64-3.84 5.32-5.98 2.94-3.19 6.43-5.78 9.81-8.48 2.3-1.84 4.52-3.74 6.73-5.69 3-2.5 3-2.5 6-3.5 1.02-0.979 2.02-1.98 3-3 0.66-0.33 1.32-0.66 2-1 0.569-3.17 0.443-5.29-1.28-8.05-1.85-2.37-3.77-4.66-5.72-6.95-25-30.6-25-30.6-25-38-1.2 0.557-2.39 1.11-3.62 1.69-5.18 2.31-10.5 4.15-15.8 6.03-3.23 1.17-6.38 2.44-9.54 3.79-6.57 2.79-13.3 5.15-20 7.5-10.8 3.8-10.8 3.8-21.4 8.01-18.9 7.28-38.8 13-58.6 17.2-0.761 0.163-1.52 0.326-2.31 0.495-12.2 2.52-26.3 5.1-37.3-1.99-5.43-4.1-7.38-10.2-8.31-16.8-0.512-8.85 0.184-16.7 2.63-25.2 0.184-0.901 0.184-0.901 0.371-1.82-1.05-1.27-1.05-1.27-3.39-1.11-1.06 0.00825-2.12 0.0165-3.21 0.025-1.8 0.0098-1.8 0.0098-3.63 0.0198-1.31 0.0114-2.62 0.0229-3.97 0.0347-1.36 0.00695-2.71 0.0132-4.07 0.0187-5.77 0.0244-11.5 0.0595-17.3 0.105-3.53 0.0271-7.06 0.0439-10.6 0.0549-1.98 0.00908-3.95 0.0294-5.93 0.0501-8.16 0.0223-15.9-0.718-23.9-2.2-1.24-0.223-2.48-0.446-3.76-0.676-12.4-2.7-24.5-8.54-33-18.3-2.2-2.34-2.2-2.34-5.81-2.44-3.13 0.398-4.91 0.63-7.44 2.44-1.01 1.32-2.01 2.66-3 4h-2c-0.66 1.65-1.32 3.3-2 5h-2c-0.289 0.742-0.578 1.48-0.875 2.25-0.948 2.32-1.97 4.53-3.12 6.75h-2c-0.268 0.887-0.536 1.77-0.812 2.69-1.13 3.15-2.42 5.49-4.19 8.31-4.55 7.89-8.75 16-13 24.1-0.841 1.6-1.69 3.2-2.53 4.8-2.88 5.57-5.14 11.3-7.27 17.2-1.2 2.95-2.26 5.46-4.21 7.98-4.98 1.21-10.5 0.404-15-2 0.59-6.08 1.5-11.9 2.88-17.9 0.175-0.779 0.35-1.56 0.53-2.36 1.2-5.26 2.57-10.4 4.18-15.6 0.463-2.4 0.189-3.87-0.582-6.16-0.554 0.361-1.11 0.722-1.68 1.09-0.724 0.464-1.45 0.928-2.2 1.41-0.719 0.464-1.44 0.928-2.18 1.41-1.95 1.09-1.95 1.09-3.95 1.09-0.227 0.598-0.454 1.2-0.688 1.81-1.69 2.82-3.45 3.56-6.31 5.19-1.08 0.628-2.16 1.26-3.27 1.9-13.8 7.96-26.8 15.2-43.1 15.4l-2.21 0.0879c-5.62 0.0652-8.78-1.22-13.4-4.4-6.5-6.67-6.84-15.1-7-24 0.261-5.19 0.791-10.3 1.38-15.5 0.142-1.34 0.282-2.69 0.422-4.03 1.11-10.4 1.11-10.4 2.2-15.5-4.15 0.244-6.39 0.466-9.56 3.25-0.804 0.908-1.61 1.82-2.44 2.75-2 1.67-4 3.33-6 5-4.04 3.82-7.63 7.98-11.2 12.2-0.584 0.592-1.17 1.18-1.77 1.79h-2c-0.186 0.681-0.371 1.36-0.562 2.06-1.71 3.5-3.91 5.52-6.7 8.18-2.31 2.34-3.94 5.01-5.73 7.76-1.67 1.67-3.33 3.33-5 5-0.915 1.26-1.81 2.53-2.69 3.81-1.14 1.58-1.14 1.58-2.31 3.19h-2c-0.247 0.722-0.495 1.44-0.75 2.19-1.39 3.12-3.06 5.19-5.25 7.81-2.04 2.64-4.03 5.31-6 8-0.536 0.73-1.07 1.46-1.62 2.21-6.95 9.69-13.3 20-18.4 30.8-2.38-0.312-2.38-0.312-5-1-4.33-6.5-2.07-15.4-0.625-22.7 0.531-2.44 1.07-4.88 1.62-7.31 0.178-0.835 0.356-1.67 0.539-2.53 1.11-5.21 2.43-10.4 3.74-15.5 0.823-3.35 1.53-6.72 2.2-10.1 0.527-1.84 0.527-1.84 2.53-4.84-2.96 1.61-5.16 3.16-7.56 5.56-2.44 2.44-2.44 2.44-4.62 3.5-2.4 1.24-2.66 2.5-3.81 4.94-3.09 3.93-6.31 7.61-10 11h-2c-0.309 0.835-0.309 0.835-0.625 1.69-1.95 3.28-4.32 5.02-7.38 7.31h-2l-0.781 1.77c-1.32 2.41-2.77 4.05-4.72 5.98-0.608 0.614-1.22 1.23-1.84 1.86-1.66 1.39-1.66 1.39-3.66 1.39-0.34 0.835-0.34 0.835-0.688 1.69-1.69 2.97-3.84 4.96-6.31 7.31-0.784 0.784-1.57 1.57-2.38 2.38-2.04 2.04-4.08 4.08-6.12 6.12-0.594 0.596-1.19 1.19-1.8 1.8-1.45 1.45-2.92 2.89-4.39 4.32-2.33 2.28-2.33 2.28-4.06 4.75-2.71 3.16-5.77 5.43-9.08 7.93-2.61 2.04-4.86 4.32-7.17 6.69-1.16 1.01-2.33 2.01-3.5 3-3.62 3.06-6.96 6.34-10.2 9.81-1.31 1.19-1.31 1.19-3.31 1.19-0.33 0.99-0.66 1.98-1 3-0.639 0.144-1.28 0.289-1.94 0.438-0.681 0.186-1.36 0.371-2.06 0.562-0.276 0.589-0.552 1.18-0.836 1.79-1.5 2.85-3.33 4.22-5.85 6.21-0.977 0.779-1.95 1.56-2.96 2.36-0.535 0.421-1.07 0.842-1.62 1.28-2.54 2-5.05 4.02-7.57 6.04-1.28 1.03-2.57 2.05-3.85 3.08-4.42 3.52-8.82 7.06-13.1 10.8-2.74 2.41-4.72 3.67-8.24 4.45-0.33 0.99-0.66 1.98-1 3-1.36 0.954-2.73 1.9-4.14 2.78-2.12 1.4-4.06 2.95-6.04 4.54-4.17 3.28-8.53 6.12-13 8.92-3.62 2.3-7.11 4.78-10.6 7.29-2.19 1.48-2.19 1.48-4.41 2.55-1.96 0.799-1.96 0.799-2.78 2.93-1.57 0.914-1.57 0.914-3.57 1.85-4.23 2.03-8.3 4.27-12.4 6.59-0.699 0.395-1.4 0.789-2.12 1.2-2.88 1.63-5.76 3.26-8.63 4.92-4.54 2.6-9.11 4.68-14 6.55-1.88 0.724-3.73 1.52-5.57 2.33-8.68 3.72-17.4 6.84-26.7 8.2-2 0.16-2 0.16-3.01 1.36-19 2.95-35.7 1.34-52-9-11.7-9.1-18.7-20.7-24-34.3-0.647-1.66-1.32-3.31-2.04-4.94-5.64-13.6-7.57-30.1-8-44.7l-0.121-3.49c-0.245-14.1 0.588-28.6 3.12-42.5l0.43-3.04c0.878-6.2 2.06-12.1 3.8-18.1 0.808-2.97 1.42-5.93 2.02-8.95 1.47-7.04 3.33-13.9 5.25-20.9 0.445-1.63 0.445-1.63 0.899-3.29 1.47-5.23 3.07-9.88 5.6-14.7 0.536-1.94 1.02-3.9 1.44-5.88 1.04-4.39 2.33-8.02 4.47-12 1.34-2.66 2.36-5.37 3.4-8.16 4.32-11.4 8.97-23.2 15.3-33.7 1.41-2.24 1.41-2.24 2.27-4.55 3.83-9.53 9.03-18.5 14.2-27.3 2.43-4.31 4.59-8.72 6.7-13.2 1.23-2.23 1.23-2.23 3.23-3.23 0.735-1.69 1.47-3.39 2.12-5.11 1.03-2.21 2.4-3.94 3.88-5.89 1.26-2.2 2.44-4.44 3.62-6.68 1.38-2.32 1.38-2.32 3.31-4.71 2.98-3.75 5.15-7.89 7.48-12.1 1.59-2.55 1.59-2.55 3.59-3.55 0.722-1.64 1.39-3.31 2-5h2l0.715-2.09c1.54-3.49 3.6-6.42 5.85-9.47 0.444-0.612 0.888-1.22 1.35-1.85 1.36-1.87 2.72-3.73 4.09-5.58 0.773-1.05 1.55-2.11 2.34-3.2 4.39-5.91 8.94-11.6 13.6-17.3 1.75-2.17 3.37-4.38 4.95-6.68 0.681-0.928 1.36-1.86 2.06-2.81h2c0.33-1.32 0.66-2.64 1-4h2l0.812-2.31c1.15-2.6 2.13-3.81 4.19-5.69 0.33-0.66 0.66-1.32 1-2h2c0.248-0.557 0.495-1.11 0.75-1.69 2.61-4.83 6.4-8.46 10.2-12.3 0.66-0.825 1.32-1.65 2-2.5 2.16-2.71 4.55-5.05 7-7.5 0.784-0.969 1.57-1.94 2.38-2.94 2.38-2.94 5.1-5.24 8.07-7.57 1.66-1.43 1.66-1.43 2.52-3.49 1.25-2.44 2.6-3.39 4.84-4.94 5.91-4.27 10.5-9.49 15.3-14.9 7.14-7.99 15.5-14.5 23.9-21.1 0.67-0.527 1.34-1.05 2.03-1.6 5.42-4.17 11.2-7.81 17-11.4 1.23-0.77 1.23-0.77 2.48-1.55 3.67-2.1 7.51-3.6 11.4-5.17 3.02-1.19 3.02-1.19 5.5-2.52 8.54-4.23 20.6-4.07 29.3-0.00391zm175 85.2c-0.459 0.531-0.918 1.06-1.39 1.61-0.614 0.706-1.23 1.41-1.86 2.14-0.603 0.696-1.21 1.39-1.83 2.11-1.92 2.14-1.92 2.14-3.84 3.82-3.14 3.51-5.03 7.58-7.14 11.8-0.865 1.69-1.73 3.37-2.6 5.06-0.404 0.788-0.808 1.58-1.22 2.39-1.28 2.43-2.7 4.76-4.12 7.12-0.724 1.91-1.44 3.82-2.14 5.74-0.921 2.41-1.97 4.73-3.05 7.07-5.27 11.4-9.97 23.1-14.8 34.8-1.7 4.07-3.45 8.12-5.2 12.2-2.02 4.73-3.92 9.37-5.31 14.3-1.29 4.54-3.11 8.68-5.11 13-4.28 9.15-8.07 18.1-10.4 28-0.178 0.704-0.356 1.41-0.539 2.13-0.562 2.28-1.01 4.57-1.46 6.87l2 1c1.26-2.91 2-4.8 2-8 0.893-0.306 0.893-0.306 1.8-0.617 3.1-1.95 3.82-4.19 5.32-7.51 2.54-5.4 5.38-10.4 8.62-15.4 4.53-7.04 8.44-14.3 12.3-21.8 3.28-6.36 6.72-12.6 10.3-18.8 1.66-2.93 3.17-5.89 4.66-8.91 0.598-1.2 1.2-2.4 1.8-3.59 1-2.01 2.01-4.01 3.01-6.02 1.68-3.37 3.37-6.74 5.1-10.1 3.37-6.59 6.34-13.2 8.9-20.1 1.59-4.23 3.38-8.38 5.18-12.5 0.98-2.56 1.53-4.96 2.02-7.66 0.351-1.01 0.701-2.02 1.06-3.06 1.55-5.17 1.1-10.6 0.938-15.9-0.99-0.33-1.98-0.66-3-1zm-169 59 1 2zm96 101 1 2zm144 25 1 3zm-8 36 1 2zm-171 7v2h2v-2h-2zm557 28 1 2zm-5 15c-0.825 0.825-1.65 1.65-2.5 2.5-1.89 1.89-3.73 3.53-5.81 5.19-0.887 0.763-1.77 1.53-2.69 2.31v2c-0.589 0.0877-1.18 0.175-1.79 0.266-2.81 0.932-3.79 2.2-5.65 4.48-3.28 3.93-6.78 7.51-10.4 11.1-7.43 7.6-13.4 16.3-19.1 25.2l-2.23 3.17c-2.03 2.7-2.03 2.7-1.77 5.83h-2c-4.05 10.2-4.05 10.2-4 21 2.41 3.49 5.05 4.67 9 6 13 1.45 20.4-2.6 30.7-10 2.27-1.98 2.98-3.37 4.29-6 0.597-0.284 1.19-0.567 1.81-0.859 3.27-1.7 5.1-4.5 7.25-7.39 0.651-0.841 0.651-0.841 1.31-1.7 2.67-3.52 4.75-7.03 6.62-11.1 0.4-0.802 0.799-1.6 1.21-2.43 7.64-16 12.5-33.2 7.29-50.8-0.47-1.26-0.956-2.52-1.5-3.75-4.91 0-6.63 1.8-10 5z" fill="#CD0945"/>
<path transform="translate(1053,263)" d="m0 0c2.9 3.05 3.43 5.27 3.44 9.44-0.1 3.76-0.295 5.32-2.25 8.62-2.97 2.63-4.62 3.88-8.62 4.31-3.56-0.375-3.56-0.375-5.94-1.94-2.17-3.26-2.56-5.53-2.62-9.44 1.73-4.54 4.32-9.79 8.94-11.9 2.63-0.159 4.55 0.0378 7.06 0.875z" fill="#CE0A46"/>
<path transform="translate(959,345)" d="m0 0h32v1h-32v-1z" fill="#000002"/>
<path transform="translate(1196,335)" d="m0 0h1v8h-1v-8z" fill="#000002"/>
<path transform="translate(578,64)" d="m0 0h6v1h-6v-1z" fill="#000002"/>
<path transform="translate(362,578)" d="m0 0 2 1z" fill="#000002"/>
<path transform="translate(389,576)" d="m0 0 2 1z" fill="#000002"/>
<path transform="translate(352,576)" d="m0 0 2 1z" fill="#000002"/>
<path transform="translate(1342,343)" d="m0 0 2 1z" fill="#000002"/>
<path transform="translate(1232,337)" d="m0 0 2 1z" fill="#000002"/>
<path transform="translate(1230,294)" d="m0 0 2 1z" fill="#000002"/>
<path transform="translate(1230,283)" d="m0 0 2 1z" fill="#CE0A46"/>
<path transform="translate(572,65)" d="m0 0 2 1z" fill="#000002"/>
</svg>
